HIERARCHY
ROOT Hips
{
	OFFSET	0.00	0.00	0.00
	CHANNELS 6 Xposition Yposition Zposition Zrotation Xrotation Yrotation
	JOINT LeftUpLeg
	{
		OFFSET	 0.126116	-0.014019	-0.065224
		CHANNELS 3 Zrotation Xrotation Yrotation
		JOINT LeftLeg
		{
			OFFSET	 0.000000	 0.000000	 0.569914
			CHANNELS 3 Zrotation Xrotation Yrotation
			JOINT LeftFoot
			{
				OFFSET	 0.000000	 0.000000	 0.544423
				CHANNELS 3 Zrotation Xrotation Yrotation
				JOINT LeftToeBase
				{
					OFFSET	 0.000000	 0.000000	 0.207117
					CHANNELS 3 Zrotation Xrotation Yrotation
					End Site
					{
						OFFSET	 0.000000	 0.000000	 0.207117
					}
				}
			}
		}
	}
	JOINT RightUpLeg
	{
		OFFSET	-0.124023	-0.008373	-0.065224
		CHANNELS 3 Zrotation Xrotation Yrotation
		JOINT RightLeg
		{
			OFFSET	 0.000000	 0.000000	 0.570047
			CHANNELS 3 Zrotation Xrotation Yrotation
			JOINT RightFoot
			{
				OFFSET	 0.000000	 0.000000	 0.544354
				CHANNELS 3 Zrotation Xrotation Yrotation
				JOINT RightToeBase
				{
					OFFSET	 0.000000	 0.000000	 0.207540
					CHANNELS 3 Zrotation Xrotation Yrotation
					End Site
					{
						OFFSET	 0.000000	 0.000000	 0.207540
					}
				}
			}
		}
	}
	JOINT Spine
	{
		OFFSET	 0.000184	-0.007763	 0.117403
		CHANNELS 3 Zrotation Xrotation Yrotation
		JOINT Spine1
		{
			OFFSET	 0.000000	 0.000000	 0.137269
			CHANNELS 3 Zrotation Xrotation Yrotation
			JOINT Spine2
			{
				OFFSET	 0.000000	 0.000000	 0.156879
				CHANNELS 3 Zrotation Xrotation Yrotation
				JOINT LeftShoulder
				{
					OFFSET	 0.080501	-0.002496	 0.160144
					CHANNELS 3 Zrotation Xrotation Yrotation
					JOINT LeftArm
					{
						OFFSET	 0.000000	 0.000000	 0.164363
						CHANNELS 3 Zrotation Xrotation Yrotation
						JOINT LeftForeArm
						{
							OFFSET	 0.000000	 0.000000	 0.364576
							CHANNELS 3 Zrotation Xrotation Yrotation
							JOINT LeftHand
							{
								OFFSET	 0.000000	 0.000000	 0.360812
								CHANNELS 3 Zrotation Xrotation Yrotation
								JOINT LeftHandIndex1
								{
									OFFSET	 0.000000	 0.000000	 0.086006
									CHANNELS 3 Zrotation Xrotation Yrotation
									JOINT LeftHandIndex2
									{
										OFFSET	 0.000000	 0.000000	 0.047236
										CHANNELS 3 Zrotation Xrotation Yrotation
										JOINT LeftHandIndex3
										{
											OFFSET	-0.004284	-0.000551	 0.038166
											CHANNELS 3 Zrotation Xrotation Yrotation
											End Site
											{
												OFFSET	-0.004284	-0.000551	 0.038166
											}
										}
									}
								}
							}
						}
					}
				}
				JOINT Neck
				{
					OFFSET	 0.000000	 0.000000	 0.176489
					CHANNELS 3 Zrotation Xrotation Yrotation
					JOINT Head
					{
						OFFSET	 0.000000	-0.001747	 0.077940
						CHANNELS 3 Zrotation Xrotation Yrotation
						End Site
						{
							OFFSET	 0.000000	-0.001747	 0.077940
						}
					}
				}
				JOINT RightShoulder
				{
					OFFSET	-0.080363	 0.000306	 0.159706
					CHANNELS 3 Zrotation Xrotation Yrotation
					JOINT RightArm
					{
						OFFSET	 0.000000	 0.000000	 0.164196
						CHANNELS 3 Zrotation Xrotation Yrotation
						JOINT RightForeArm
						{
							OFFSET	 0.000000	 0.000000	 0.365611
							CHANNELS 3 Zrotation Xrotation Yrotation
							JOINT RightHand
							{
								OFFSET	 0.000000	 0.000000	 0.360648
								CHANNELS 3 Zrotation Xrotation Yrotation
								JOINT RightHandIndex1
								{
									OFFSET	 0.000000	 0.000000	 0.069977
									CHANNELS 3 Zrotation Xrotation Yrotation
									JOINT RightHandIndex2
									{
										OFFSET	 0.000000	 0.000000	 0.052305
										CHANNELS 3 Zrotation Xrotation Yrotation
										JOINT RightHandIndex3
										{
											OFFSET	 0.009002	-0.000782	 0.042196
											CHANNELS 3 Zrotation Xrotation Yrotation
											End Site
											{
												OFFSET	 0.009002	-0.000782	 0.042196
											}
										}
									}
								}
							}
						}
					}
				}
			}
		}
	}
}
MOTION
Frames:    8
Frame Time: 0.03333334
 0.011624	 0.058431	 1.197110	 5.295144	-1.208147	-3.650775	 0.759389	-13.057510	-171.288500	 1.081661	-40.049790	 0.469058	 52.807190	 81.114690	-56.874170	-2.369272	 31.636420	-0.070408	-6.319873	-30.990380	-174.763500	 11.825690	-53.421000	 10.162830	 32.866040	 80.794930	-29.735490	 2.358931	 33.006260	 0.103372	 1.612975	 8.791595	 0.645642	 2.004033	 2.291090	 3.577566	-9.460560	-1.864027	-4.264522	-94.000370	 58.963240	 175.256300	 25.186780	 44.804070	-21.839920	-1.857763	-2.324952	-22.896180	 1.399193	-4.924536	-7.679177	-4.868739	 19.279270	-2.793334	-3.876134	 21.541700	 2.197277	-4.805697	 5.575739	 0.145200	-0.061673	-5.088400	 0.198799	-11.362270	 1.953570	 1.979781	 89.757760	 61.682870	 179.941900	-18.819440	 50.728050	 8.342691	-1.636690	-2.956102	 14.875540	-5.009994	 10.133250	 0.498537	 6.287848	 24.372630	-0.540127	 1.946053	 44.206420	-7.047019	 0.622141	 23.854070	 3.519972
 0.011393	 0.052822	 1.194994	 5.709231	-0.824852	-3.652782	 0.372363	-13.492140	-171.292000	 1.262520	-40.599300	 0.592089	 54.192450	 81.307620	-58.412560	-2.368565	 31.754180	-0.073076	-7.391274	-32.185410	-174.850000	 12.550910	-53.091130	 10.710720	 55.548690	 83.189430	-53.219520	 2.359005	 32.995250	 0.103110	 1.308119	 8.599292	 0.559253	 1.990058	 1.874512	 3.677436	-9.427616	-1.566689	-4.212311	-94.103920	 58.980010	 175.033400	 25.259900	 44.332630	-21.702920	-2.045721	-2.384541	-24.161660	 1.761720	-5.129692	-8.037302	-4.865105	 19.372390	-2.799438	-3.870285	 21.616380	 2.191331	-4.804372	 5.591277	 0.144291	-0.040372	-5.103929	 0.229260	-11.282080	 2.097877	 1.948542	 89.717580	 61.755580	 179.845500	-18.554660	 50.952280	 7.936188	-1.973351	-3.058075	 14.917250	-5.110888	 10.421400	 0.347660	 6.277636	 23.645900	-0.550300	 2.031144	 43.495510	-7.122495	 0.778989	 23.156540	 3.442199
 0.011130	 0.037421	 1.190692	 6.288840	-0.082630	-3.830307	-0.146840	-13.924280	-171.157900	 1.542123	-41.416850	 0.786888	 58.225640	 81.776860	-62.683930	-2.366626	 32.068310	-0.080234	-8.572344	-34.713090	-174.804100	 13.596790	-51.807760	 11.372350	 102.415200	 82.284770	-101.804600	 2.360361	 32.795330	 0.098468	 0.795109	 8.164355	 0.582936	 1.934823	 1.308807	 3.791517	-9.249050	-1.071024	-4.071013	-94.289390	 58.989400	 174.636700	 25.078510	 43.113700	-21.525070	-2.669378	-2.376465	-26.887690	 2.034841	-5.682973	-8.053889	-4.853321	 19.648920	-2.812666	-3.856047	 21.797370	 2.176867	-4.798026	 5.666074	 0.139905	-0.012693	-5.153783	 0.288187	-11.048900	 2.382510	 1.950223	 89.613400	 61.896850	 179.594200	-17.999120	 51.420830	 7.075784	-2.905365	-3.306540	 14.869890	-5.450194	 11.043170	-0.286462	 6.252249	 22.053380	-0.592952	 2.189572	 42.118880	-7.262169	 1.132677	 21.552750	 3.272709
 0.010865	 0.011036	 1.185254	 6.584819	 0.542978	-4.171877	-0.459629	-13.452680	-170.934900	 1.739287	-41.965080	 0.927266	 64.207490	 82.338480	-68.827610	-2.361351	 32.883520	-0.098965	-7.975316	-37.403820	-174.290600	 13.538720	-48.908600	 10.871790	 125.819700	 77.037410	-126.687100	 2.356276	 33.390920	 0.112331	 0.222596	 7.676332	 0.830394	 1.818840	 1.231952	 3.698289	-8.823549	-0.690516	-3.792998	-94.437850	 58.970870	 174.323300	 24.006880	 41.281650	-21.589170	-3.511503	-2.215566	-29.986550	 1.778881	-6.140227	-7.454527	-4.833103	 20.072620	-2.821888	-3.833576	 22.081390	 2.154033	-4.779558	 5.883131	 0.127136	 0.012701	-5.243681	 0.334176	-10.598000	 2.693213	 1.983412	 89.484510	 62.018900	 179.280900	-17.152080	 51.979920	 5.895041	-4.360534	-3.604421	 14.449300	-5.863144	 11.659490	-1.626408	 6.211785	 19.856080	-0.676704	 2.434000	 39.850050	-7.475246	 1.608486	 19.328620	 3.058052
 0.010064	-0.022913	 1.179227	 6.815404	 0.748809	-4.422302	-0.883941	-11.960470	-170.892100	 1.958628	-42.180840	 1.078479	 67.542870	 82.716410	-72.279940	-2.347743	 34.766000	-0.143267	-6.700316	-39.169850	-173.579800	 12.986930	-44.274470	 9.690175	 128.077900	 73.360730	-129.936800	 2.342808	 35.179250	 0.154842	-0.637295	 7.616447	 1.056249	 1.629681	 1.241488	 3.502984	-8.194585	-0.452683	-3.461589	-94.517080	 58.926930	 174.161600	 22.032290	 39.370200	-21.986690	-3.879267	-2.186579	-32.215460	 1.427596	-6.725511	-7.369355	-4.834027	 20.391600	-2.921721	-3.805719	 22.430520	 2.125752	-4.746606	 6.268885	 0.104252	 0.067605	-5.345061	 0.350921	-9.917073	 3.019585	 1.888748	 89.393010	 62.013370	 179.059800	-16.038200	 52.428650	 4.345810	-5.791293	-3.759460	 13.620370	-5.930608	 11.754040	-3.116979	 6.175785	 17.514860	-0.708593	 2.725542	 36.891530	-7.725034	 2.089736	 17.003870	 2.857372
 0.008257	-0.057330	 1.172908	 7.068857	 0.736206	-4.390593	-1.500792	-10.188690	-171.190200	 2.340495	-42.326730	 1.338779	 63.171380	 82.726080	-68.048060	-2.319383	 37.990680	-0.223015	-6.070474	-40.025140	-173.327100	 12.287270	-39.129930	 8.318886	 113.046100	 75.375230	-115.270500	 2.336493	 35.939490	 0.173363	-1.670919	 7.761063	 1.103549	 1.419323	 1.233305	 3.241608	-7.512228	-0.298732	-3.141885	-94.535910	 59.023440	 174.105600	 20.040190	 37.845980	-22.843030	-3.944852	-2.230582	-33.233010	 1.053959	-7.691439	-7.794348	-4.857084	 20.538920	-3.099353	-3.780745	 22.740770	 2.100382	-4.707725	 6.721243	 0.077109	 0.133871	-5.429221	 0.324104	-9.134984	 3.336770	 1.778518	 89.357430	 61.849060	 178.980200	-15.031330	 52.614970	 2.832401	-6.886794	-3.767404	 12.713870	-5.865639	 11.445230	-4.253541	 6.171466	 15.470680	-0.594027	 2.922539	 34.721200	-7.890727	 2.497197	 14.979270	 2.701055
 0.004384	-0.098330	 1.163764	 7.350916	 0.530442	-3.829082	-2.184060	-7.971949	-172.189200	 2.448363	-42.865220	 1.425955	 47.153920	 81.779750	-51.711860	-2.238997	 44.461350	-0.402434	-5.104981	-40.839550	-173.514200	 9.705552	-34.615400	 5.989006	 70.926120	 78.521230	-71.198570	 2.339614	 35.569310	 0.164314	-3.011808	 7.852925	 0.732727	 1.168276	 1.634243	 2.886884	-6.635453	-0.213280	-2.811083	-94.491740	 59.274010	 174.158200	 18.109050	 36.466120	-24.099630	-4.099331	-2.193050	-34.015530	 0.502804	-8.570340	-8.228503	-4.884152	 20.649610	-3.291120	-3.760187	 22.994390	 2.079508	-4.655821	 7.320602	 0.040625	 0.214051	-5.479080	 0.262976	-8.087214	 3.707405	 1.891887	 89.355000	 61.560280	 178.985100	-14.064490	 52.602310	 1.263279	-7.909575	-3.777399	 11.971540	-6.041757	 10.906150	-5.204450	 6.221472	 13.186810	-0.234722	 3.066781	 33.037290	-8.010250	 2.920229	 12.825980	 2.552571
-0.000842	-0.142138	 1.151523	 7.990585	-0.054888	-2.894027	-2.455213	-5.150476	-173.867000	 0.977773	-43.703020	 0.431868	 26.627390	 77.909690	-29.257770	-2.067578	 52.871140	-0.695851	-2.729502	-42.788770	-173.134000	 7.033171	-33.265000	 4.292005	 20.572680	 73.317330	-17.026670	 2.337854	 35.779870	 0.169447	-4.628703	 8.071243	-0.030203	 0.830096	 2.639638	 2.598139	-5.712039	-0.311488	-2.587233	-94.423770	 59.239340	 174.309800	 16.520870	 34.940910	-25.223270	-4.441573	-2.078815	-35.579230	 0.154442	-8.291584	-8.121572	-4.895442	 20.811990	-3.410494	-3.744535	 23.186200	 2.063626	-4.597958	 7.982557	-0.000367	 0.312110	-5.447685	 0.260413	-6.939970	 4.153701	 2.281490	 89.292240	 61.407690	 178.842100	-13.267360	 52.539420	-0.019243	-8.543393	-3.791264	 11.573520	-6.484833	 10.302870	-5.302593	 6.305692	 10.960690	 0.208220	 3.216273	 31.202230	-8.132362	 3.277761	 10.968340	 2.438483
